<svg width="131" height="131" viewBox="0 0 131 131" fill="none" xmlns="http://www.w3.org/2000/svg">
<path d="M92.324 7.92353C96.4228 6.92977 100.582 9.33097 101.771 13.3776C102.696 16.5266 105.472 18.7766 108.745 19.0279C112.946 19.3504 116.154 22.928 116.035 27.1399C115.943 30.4205 117.887 33.4272 120.92 34.6797C124.814 36.2873 126.756 40.6855 125.345 44.6546C124.245 47.7481 125.162 51.2138 127.659 53.3456C130.865 56.0821 131.354 60.8655 128.787 64.2083C126.785 66.8143 126.588 70.3953 128.303 73.1976C130.506 76.7962 129.499 81.4958 126.023 83.887C123.314 85.7505 122.025 89.0942 122.79 92.2922C123.773 96.4008 121.371 100.561 117.321 101.764C114.169 102.7 111.918 105.488 111.659 108.766C111.326 112.972 107.76 116.194 103.542 116.086C100.257 116.001 97.2547 117.963 95.9985 120.999C94.387 124.893 90.0001 126.862 86.0275 125.454C82.9328 124.358 79.4726 125.296 77.3435 127.795C74.6118 131.002 69.8318 131.519 66.4927 128.951C63.8913 126.95 60.3155 126.77 57.5207 128.49C53.9324 130.699 49.2301 129.71 46.8501 126.232C44.9963 123.524 41.6595 122.244 38.4698 123.018C34.3709 124.012 30.2119 121.61 29.0231 117.564C28.098 114.415 25.3215 112.165 22.049 111.913C17.8477 111.591 14.6398 108.013 14.7585 103.801C14.851 100.521 12.9071 97.5142 9.87361 96.2617C5.97992 94.6541 4.03788 90.2558 5.44915 86.2867C6.54909 83.1932 5.63135 79.7275 3.13429 77.5958C-0.0711944 74.8593 -0.559803 70.0758 2.00717 66.733C4.0083 64.1271 4.20572 60.5461 2.49035 57.7438C0.287542 54.1451 1.29462 49.4456 4.7709 47.0544C7.48006 45.1908 8.76917 41.8471 8.00389 38.6492C7.02068 34.5406 9.42251 30.3805 13.4723 29.1776C16.6244 28.2414 18.8756 25.4532 19.1349 22.1752C19.4676 17.969 23.034 14.7471 27.2519 14.8555C30.5365 14.9399 33.539 12.9784 34.7953 9.9424C36.4067 6.04795 40.7936 4.07938 44.7662 5.48716C47.8609 6.58381 51.3212 5.64573 53.4502 3.14641C56.1819 -0.0603296 60.962 -0.577611 64.301 1.99062C66.9025 3.99148 70.4782 4.17157 73.2731 2.4512C76.8614 0.2424 81.5636 1.2318 83.9436 4.70892C85.7974 7.41738 89.1342 8.69688 92.324 7.92353Z" fill="#BDC695"/>
</svg>
