<svg width="130" height="130" viewBox="0 0 130 130" fill="none" xmlns="http://www.w3.org/2000/svg">
<path d="M105.633 16.1124C109.85 16.2133 113.245 19.6091 113.346 23.8255V23.8255C113.425 27.1067 115.524 29.9987 118.62 31.0883V31.0883C122.595 32.4873 124.768 36.7732 123.563 40.8109V40.8109C122.625 43.9558 123.724 47.3631 126.33 49.358V49.358C129.675 51.9186 130.412 56.6697 128.022 60.1382V60.1382C126.159 62.8416 126.148 66.4268 128.009 69.1322V69.1322C130.397 72.6051 129.631 77.352 126.286 79.9165V79.9165C123.678 81.9157 122.561 85.3236 123.493 88.4744V88.4744C124.689 92.5206 122.5 96.7993 118.523 98.2093V98.2093C115.424 99.3082 113.313 102.204 113.225 105.491V105.491C113.111 109.714 109.714 113.111 105.491 113.225V113.225C102.204 113.313 99.3082 115.424 98.2093 118.523V118.523C96.7993 122.5 92.5205 124.689 88.4744 123.493V123.493C85.3236 122.561 81.9157 123.678 79.9165 126.286V126.286C77.3519 129.631 72.605 130.397 69.1321 128.009V128.009C66.4268 126.148 62.8416 126.159 60.1382 128.022V128.022C56.6696 130.412 51.9186 129.675 49.358 126.33V126.33C47.3631 123.724 43.9558 122.625 40.8109 123.563V123.563C36.7732 124.768 32.4872 122.595 31.0883 118.621V118.621C29.9986 115.525 27.1067 113.425 23.8255 113.346V113.346C19.6091 113.245 16.2133 109.85 16.1123 105.633V105.633C16.0338 102.352 13.9342 99.4601 10.8382 98.3705V98.3705C6.86362 96.9715 4.69091 92.6856 5.89572 88.6479V88.6479C6.83412 85.503 5.73469 82.0957 3.12871 80.1008V80.1008C-0.216233 77.5402 -0.953739 72.7891 1.43672 69.3206V69.3206C3.29983 66.6172 3.31036 63.032 1.45012 60.3266V60.3266C-0.937883 56.8537 -0.1718 52.1068 3.17288 49.5423V49.5423C5.78029 47.5431 6.89782 44.1352 5.9662 40.9844V40.9844C4.76984 36.9382 6.95893 32.6595 10.9357 31.2495V31.2495C14.0348 30.1506 16.1454 27.2545 16.2339 23.9674V23.9674C16.3476 19.7443 19.7443 16.3476 23.9674 16.234V16.234C27.2544 16.1455 30.1505 14.0349 31.2494 10.9357V10.9357C32.6594 6.95898 36.9382 4.76989 40.9843 5.96624V5.96624C44.1351 6.89786 47.543 5.78034 49.5422 3.17293V3.17293C52.1068 -0.171755 56.8537 -0.937838 60.3266 1.45016V1.45016C63.0319 3.31041 66.6171 3.29988 69.3205 1.43676V1.43676C72.7891 -0.953694 77.5401 -0.216189 80.1007 3.12875V3.12875C82.0956 5.73473 85.503 6.83417 88.6478 5.89577V5.89577C92.6855 4.69095 96.9715 6.86367 98.3704 10.8383V10.8383C99.4601 13.9343 102.352 16.0338 105.633 16.1124V16.1124Z" fill="#F4A73F"/>
</svg>
