<svg width="194" height="194" viewBox="0 0 194 194" fill="none" xmlns="http://www.w3.org/2000/svg">
<path d="M137.634 48.1124C141.85 48.2133 145.246 51.6091 145.347 55.8255C145.426 59.1067 147.525 61.9987 150.621 63.0883C154.596 64.4873 156.768 68.7732 155.564 72.8109C154.625 75.9558 155.725 79.3631 158.331 81.358C161.676 83.9186 162.413 88.6697 160.023 92.1382C158.159 94.8416 158.149 98.4268 160.009 101.132C162.397 104.605 161.631 109.352 158.286 111.917C155.679 113.916 154.561 117.324 155.493 120.474C156.689 124.521 154.5 128.799 150.524 130.209C147.424 131.308 145.314 134.204 145.225 137.491C145.112 141.714 141.715 145.111 137.492 145.225C134.205 145.313 131.309 147.424 130.21 150.523C128.8 154.5 124.521 156.689 120.475 155.493C117.324 154.561 113.916 155.678 111.917 158.286C109.353 161.631 104.606 162.397 101.133 160.009C98.4274 158.148 94.8422 158.159 92.1388 160.022C88.6702 162.412 83.9192 161.675 81.3586 158.33C79.3637 155.724 75.9564 154.625 72.8115 155.563C68.7738 156.768 64.4878 154.595 63.0889 150.621C61.9992 147.525 59.1073 145.425 55.8261 145.346C51.6097 145.245 48.2139 141.85 48.1129 137.633C48.0344 134.352 45.9348 131.46 42.8389 130.37C38.8642 128.972 36.6915 124.686 37.8963 120.648C38.8347 117.503 37.7353 114.096 35.1293 112.101C31.7844 109.54 31.0469 104.789 33.4373 101.321C35.3004 98.6172 35.311 95.032 33.4507 92.3266C31.0627 88.8537 31.8288 84.1068 35.1735 81.5423C37.7809 79.5431 38.8984 76.1352 37.9668 72.9844C36.7705 68.9382 38.9595 64.6595 42.9363 63.2495C46.0354 62.1506 48.146 59.2545 48.2345 55.9674C48.3482 51.7443 51.7449 48.3476 55.968 48.234C59.255 48.1455 62.1511 46.0349 63.25 42.9357C64.6601 38.959 68.9388 36.7699 72.985 37.9662C76.1358 38.8979 79.5436 37.7803 81.5429 35.1729C84.1074 31.8282 88.8543 31.0622 92.3272 33.4502C95.0326 35.3104 98.6177 35.2999 101.321 33.4368C104.79 31.0463 109.541 31.7838 112.101 35.1288C114.096 37.7347 117.504 38.8342 120.648 37.8958C124.686 36.691 128.972 38.8637 130.371 42.8383C131.461 45.9343 134.353 48.0338 137.634 48.1124Z" fill="#F4A73F"/>
<path d="M60.1416 63.5495C60.7239 62.5411 61.4599 61.7701 62.3497 61.2366C63.2452 60.6934 64.2067 60.4275 65.2344 60.439C66.2774 60.4465 67.2934 60.7357 68.2825 61.3067C69.4946 62.0065 70.3474 62.9256 70.8409 64.0638C71.3344 65.2021 71.4075 66.4079 71.0602 67.6813L68.3257 66.1025C68.3684 65.5583 68.265 65.0655 68.0156 64.6241C67.7759 64.1884 67.4185 63.8333 66.9433 63.559C66.1773 63.1167 65.4027 63.0251 64.6197 63.2841C63.8366 63.5431 63.1876 64.1186 62.6725 65.0107C62.1574 65.9028 61.9835 66.7527 62.1508 67.5604C62.318 68.368 62.7846 68.993 63.5507 69.4353C64.0258 69.7096 64.512 69.8416 65.0093 69.8313C65.5162 69.8266 65.9947 69.6698 66.4446 69.3607L69.1791 70.9394C68.25 71.8769 67.1692 72.4165 65.9367 72.5582C64.7097 72.6903 63.4902 72.4064 62.2781 71.7066C61.289 71.1355 60.5277 70.4051 59.9942 69.5153C59.476 68.6213 59.2255 67.6557 59.2426 66.6183C59.2597 65.5809 59.5594 64.558 60.1416 63.5495ZM83.4255 70.2047L77.5303 80.4155L75.0431 78.9795L77.47 74.7759L73.601 72.5421L71.1741 76.7457L68.6868 75.3097L74.582 65.0989L77.0693 66.5349L74.7599 70.5349L78.6289 72.7687L80.9383 68.7687L83.4255 70.2047ZM86.5578 74.6701L85.3653 76.7355L88.6962 78.6586L87.5877 80.5786L84.2569 78.6555L82.9636 80.8955L86.7308 83.0705L85.5803 85.0632L79.3259 81.4521L85.2211 71.2414L91.4755 74.8524L90.325 76.8451L86.5578 74.6701ZM89.7293 80.632C90.3115 79.6235 91.0475 78.8525 91.9374 78.319C92.8328 77.7758 93.7944 77.5099 94.822 77.5215C95.865 77.5289 96.881 77.8181 97.8701 78.3892C99.0822 79.089 99.935 80.008 100.429 81.1463C100.922 82.2845 100.995 83.4903 100.648 84.7637L97.9133 83.185C97.956 82.6407 97.8527 82.1479 97.6033 81.7066C97.3636 81.2708 97.0061 80.9157 96.531 80.6414C95.7649 80.1991 94.9904 80.1075 94.2073 80.3665C93.4243 80.6255 92.7752 81.2011 92.2601 82.0932C91.7451 82.9853 91.5712 83.8352 91.7384 84.6428C91.9056 85.4505 92.3723 86.0754 93.1383 86.5177C93.6135 86.792 94.0997 86.924 94.5969 86.9138C95.1038 86.9091 95.5823 86.7522 96.0323 86.4431L98.7668 88.0219C97.8376 88.9593 96.7568 89.499 95.5243 89.6407C94.2974 89.7727 93.0779 89.4888 91.8658 88.789C90.8767 88.218 90.1154 87.4875 89.5819 86.5977C89.0637 85.7038 88.8131 84.7381 88.8302 83.7007C88.8473 82.6634 89.147 81.6404 89.7293 80.632ZM104.194 95.81L103.365 89.3191L100.762 93.8281L98.2745 92.3921L104.17 82.1814L106.657 83.6174L104.07 88.0973L110.06 85.5824L112.984 87.2704L106.139 89.9897L107.234 97.5651L104.194 95.81ZM116.269 102.917C115.309 102.363 114.555 101.63 114.008 100.72C113.47 99.8144 113.194 98.8271 113.177 97.7576C113.177 96.6841 113.465 95.6479 114.041 94.6491C114.618 93.6504 115.369 92.8878 116.293 92.3613C117.227 91.8405 118.221 91.5866 119.273 91.5997C120.336 91.6183 121.347 91.9047 122.307 92.459C123.267 93.0132 124.016 93.7429 124.553 94.648C125.101 95.5587 125.373 96.5432 125.369 97.6015C125.376 98.6654 125.091 99.6967 124.514 100.695C123.937 101.694 123.184 102.462 122.254 102.998C121.329 103.524 120.341 103.781 119.288 103.768C118.235 103.755 117.229 103.471 116.269 102.917ZM117.579 100.648C118.394 101.118 119.2 101.222 119.998 100.959C120.806 100.701 121.468 100.126 121.983 99.2343C122.504 98.3325 122.671 97.4721 122.484 96.6533C122.313 95.8303 121.82 95.1837 121.005 94.7135C120.181 94.2376 119.368 94.1236 118.565 94.3714C117.772 94.6248 117.113 95.2072 116.587 96.1187C116.066 97.0205 115.891 97.8829 116.063 98.7059C116.249 99.5247 116.755 100.172 117.579 100.648ZM131.272 97.8289L127.745 103.938C127.392 104.549 127.271 105.106 127.381 105.609C127.492 106.112 127.838 106.532 128.419 106.868C129.001 107.204 129.542 107.296 130.043 107.146C130.544 106.995 130.97 106.615 131.323 106.004L134.85 99.8947L137.337 101.331L133.819 107.425C133.292 108.337 132.653 108.996 131.902 109.402C131.15 109.808 130.352 109.981 129.508 109.92C128.673 109.865 127.854 109.605 127.049 109.141C126.244 108.676 125.611 108.104 125.15 107.424C124.705 106.74 124.48 105.977 124.475 105.134C124.476 104.281 124.74 103.399 125.266 102.487L128.785 96.3929L131.272 97.8289ZM146.429 106.58L145.279 108.573L142.573 107.011L137.829 115.229L135.341 113.793L140.086 105.575L137.381 104.013L138.531 102.02L146.429 106.58ZM60.2435 99.3024L60.3453 94.2219L59.7489 93.8776L57.5235 97.7321L55.0363 96.296L60.9315 86.0853L65.106 88.4954C65.9108 88.9601 66.5132 89.4954 66.9133 90.1013C67.3231 90.7128 67.5258 91.347 67.5215 92.0039C67.5228 92.6511 67.3498 93.2753 67.0027 93.8765C66.6108 94.5553 66.067 95.0494 65.3712 95.3588C64.6851 95.6738 63.9044 95.7272 63.0289 95.5192L63.0507 100.923L60.2435 99.3024ZM60.765 92.1176L62.3068 93.0077C62.7626 93.2709 63.1664 93.3553 63.5181 93.261C63.8796 93.1724 64.1779 92.9244 64.4131 92.5172C64.637 92.1293 64.697 91.7566 64.5931 91.3993C64.4988 91.0475 64.2238 90.74 63.768 90.4769L62.2262 89.5867L60.765 92.1176ZM71.7567 94.9922L70.5642 97.0576L73.8951 98.9807L72.7866 100.901L69.4558 98.9776L68.1625 101.218L71.9297 103.393L70.7792 105.385L64.5248 101.774L70.42 91.5635L76.6744 95.1745L75.5239 97.1672L71.7567 94.9922ZM74.9282 100.954C75.5104 99.9456 76.2464 99.1746 77.1363 98.6411C78.0317 98.0979 78.9933 97.832 80.0209 97.8436C81.0639 97.851 82.0799 98.1402 83.069 98.7113C84.2811 99.4111 85.1339 100.33 85.6274 101.468C86.121 102.607 86.1941 103.812 85.8467 105.086L83.1122 103.507C83.1549 102.963 83.0516 102.47 82.8022 102.029C82.5625 101.593 82.205 101.238 81.7299 100.964C80.9638 100.521 80.1893 100.43 79.4062 100.689C78.6232 100.948 77.9741 101.523 77.459 102.415C76.944 103.307 76.7701 104.157 76.9373 104.965C77.1045 105.773 77.5712 106.398 78.3372 106.84C78.8124 107.114 79.2986 107.246 79.7958 107.236C80.3027 107.231 80.7812 107.074 81.2312 106.765L83.9657 108.344C83.0365 109.281 81.9557 109.821 80.7232 109.963C79.4963 110.095 78.2768 109.811 77.0647 109.111C76.0756 108.54 75.3143 107.81 74.7808 106.92C74.2626 106.026 74.012 105.06 74.0291 104.023C74.0462 102.985 74.3459 101.963 74.9282 100.954ZM91.8558 103.939L85.9606 114.15L83.4734 112.714L89.3686 102.503L91.8558 103.939ZM99.5421 112.76C99.2006 113.352 98.7513 113.816 98.1943 114.154C97.6428 114.482 96.9991 114.634 96.2632 114.61C95.5272 114.586 94.7423 114.333 93.9083 113.852L92.3665 112.961L90.2503 116.627L87.7631 115.191L93.6583 104.98L97.6873 107.306C98.5018 107.777 99.1091 108.315 99.5092 108.921C99.9093 109.526 100.107 110.158 100.103 110.815C100.098 111.472 99.9116 112.12 99.5421 112.76ZM94.8613 111.764C95.3365 112.039 95.7548 112.131 96.1163 112.043C96.4778 111.954 96.7761 111.706 97.0112 111.299C97.2464 110.892 97.3119 110.509 97.208 110.152C97.104 109.795 96.8145 109.479 96.3393 109.204L94.9866 108.423L93.5086 110.983L94.8613 111.764ZM104.072 113.649L102.879 115.715L106.21 117.638L105.101 119.558L101.771 117.635L100.477 119.875L104.245 122.05L103.094 124.042L96.8397 120.431L102.735 110.22L108.989 113.831L107.839 115.824L104.072 113.649ZM108.345 127.209C107.598 126.778 106.999 126.271 106.547 125.687C106.096 125.103 105.828 124.47 105.743 123.788C105.669 123.111 105.815 122.432 106.181 121.752L108.829 123.28C108.649 123.681 108.612 124.048 108.718 124.38C108.829 124.703 109.064 124.968 109.422 125.175C109.791 125.387 110.129 125.473 110.438 125.431C110.752 125.38 110.996 125.204 111.169 124.903C111.315 124.651 111.348 124.392 111.269 124.127C111.199 123.867 111.069 123.611 110.878 123.358C110.697 123.112 110.418 122.789 110.041 122.39C109.499 121.806 109.079 121.291 108.779 120.847C108.48 120.403 108.295 119.895 108.223 119.324C108.152 118.753 108.302 118.147 108.671 117.507C109.22 116.557 109.992 116.014 110.989 115.878C111.991 115.732 113.044 115.979 114.15 116.617C115.275 117.266 116.025 118.061 116.399 119.002C116.78 119.933 116.717 120.892 116.212 121.88L113.521 120.326C113.692 119.986 113.719 119.659 113.602 119.346C113.491 119.023 113.261 118.761 112.912 118.559C112.611 118.386 112.321 118.328 112.042 118.387C111.768 118.435 111.545 118.61 111.371 118.911C111.181 119.24 111.187 119.587 111.391 119.95C111.595 120.314 111.965 120.792 112.502 121.386C113.032 121.99 113.442 122.511 113.732 122.95C114.031 123.395 114.219 123.897 114.296 124.459C114.373 125.02 114.235 125.606 113.882 126.217C113.546 126.799 113.091 127.241 112.516 127.542C111.951 127.85 111.306 127.982 110.581 127.938C109.856 127.895 109.111 127.652 108.345 127.209ZM123.035 121.456L118.722 128.255L116.613 127.038L120.345 119.903L123.035 121.456ZM115.554 131.391C115.118 131.139 114.832 130.806 114.696 130.392C114.576 129.973 114.625 129.575 114.843 129.196C115.067 128.809 115.39 128.562 115.813 128.457C116.245 128.358 116.68 128.434 117.116 128.686C117.543 128.932 117.816 129.264 117.937 129.683C118.067 130.107 118.02 130.513 117.796 130.901C117.577 131.279 117.252 131.518 116.82 131.618C116.403 131.713 115.981 131.637 115.554 131.391Z" fill="white"/>
</svg>
